<svg width="65" height="47" viewBox="0 0 65 47" fill="none" xmlns="http://www.w3.org/2000/svg">
<path opacity="0.5" d="M0.816719 24.4916L11.7958 2.53336C12.304 1.51701 13.3529 0.875 14.4892 0.875C14.9062 0.875 15.3161 0.964375 15.7061 1.11206C22.9494 3.85512 43.7742 4.75036 54.2362 4.86765C54.7414 4.87332 55.2311 5.00442 55.6719 5.25125L57.3737 6.20426C57.8646 6.4792 58.2684 6.88669 58.5388 7.38017L63.125 15.75C65.625 21.15 61.3333 31.25 58.875 35.625C55.9076 42.3257 51.9398 44.9793 50.1075 45.5595C49.953 45.6084 49.7893 45.6317 49.6277 45.6439C17.3229 48.0895 3.858 38.4564 0.781414 32.818C0.580694 32.4502 0.5 32.0335 0.5 31.6145V25.8332C0.5 25.3675 0.608436 24.9081 0.816719 24.4916Z" stroke="black" stroke-opacity="0.5"/>
</svg>
