<svg width="66" height="48" viewBox="0 0 66 48" fill="none" xmlns="http://www.w3.org/2000/svg">
<path opacity="0.5" d="M1.73432 22.2575L13.2173 2.52464C13.8398 1.45483 15.0555 0.877185 16.2781 1.07023L21.375 1.875L34.5741 2.97492C34.7742 2.9916 34.9721 3.02833 35.1649 3.08456L40.875 4.75L51.25 6.625L56.4247 7.10414C57.4106 7.19542 58.2879 7.76724 58.7694 8.63233L64.8945 19.6368C65.2066 20.1975 65.3385 20.8439 65.2201 21.4745C63.6005 30.0977 55.2138 40.9202 50.3732 46.1932C49.8201 46.7956 49.0376 47.125 48.2198 47.125H42.1132C41.9546 47.125 41.7964 47.1124 41.6398 47.0874L17.625 43.25C13.125 42.125 9.875 41.5 6 39.75C2.62854 38.2274 1.04066 35.4721 0.775474 33.5955C0.75474 33.4488 0.75442 33.3007 0.763225 33.1528L1.33255 23.5882C1.36046 23.1193 1.49808 22.6635 1.73432 22.2575Z" stroke="black" stroke-opacity="0.5"/>
</svg>
