<svg width="63" height="48" viewBox="0 0 63 48" fill="none" xmlns="http://www.w3.org/2000/svg">
<path opacity="0.5" d="M1.75 24.3749L8.21991 5.69766C8.32267 5.40103 8.46952 5.11953 8.66877 4.87694C12.3857 0.351659 18.1495 0.391231 20.625 0.999949L33.6852 5.1115C33.9767 5.20326 34.2805 5.24995 34.5861 5.24995H53.5418C54.0075 5.24995 54.4669 5.35838 54.8834 5.56667L55.0626 5.65623C55.5136 5.88173 55.9005 6.21729 56.1875 6.63188L56.682 7.34623C56.8103 7.53146 56.9172 7.73053 57.0009 7.93969L57.875 10.1249L61.5357 16.9739C61.6777 17.2397 61.7789 17.5255 61.8359 17.8215L62.2144 19.7897C62.3194 20.3358 62.2706 20.9003 62.0733 21.4202L56.9665 34.8838C56.9056 35.0443 56.8311 35.1992 56.7437 35.347L50.7503 45.4812C50.2771 46.2814 49.4634 46.823 48.5372 46.9027C36.5465 47.9354 18.8763 44.3726 11.0138 42.3192C10.8336 42.2722 10.6654 42.2097 10.4973 42.1296L6.43939 40.1973C5.83091 39.9075 5.33772 39.4213 5.0393 38.817L0.9792 30.5953C0.669501 29.9682 0.588667 29.2525 0.750672 28.5721L1.75 24.3749Z" stroke="black" stroke-opacity="0.5"/>
</svg>
