<svg width="63" height="48" viewBox="0 0 63 48" fill="none" xmlns="http://www.w3.org/2000/svg">
<path opacity="0.5" d="M1.75 24.375L8.21991 5.69772C8.32267 5.40109 8.46952 5.11959 8.66877 4.877C12.3857 0.35172 18.1495 0.391292 20.625 1.00001L33.6852 5.11156C33.9767 5.20332 34.2805 5.25001 34.5861 5.25001H53.5418C54.0075 5.25001 54.4669 5.35845 54.8834 5.56673L55.0626 5.65629C55.5136 5.88179 55.9005 6.21735 56.1875 6.63194L56.682 7.3463C56.8103 7.53152 56.9172 7.73059 57.0009 7.93975L57.875 10.125L61.5357 16.974C61.6777 17.2398 61.7789 17.5256 61.8359 17.8216L62.2144 19.7898C62.3194 20.3358 62.2706 20.9003 62.0733 21.4203L56.9665 34.8839C56.9056 35.0443 56.8311 35.1993 56.7437 35.347L50.7503 45.4813C50.2771 46.2814 49.4634 46.823 48.5372 46.9028C36.5465 47.9355 18.8763 44.3727 11.0138 42.3193C10.8336 42.2722 10.6654 42.2097 10.4973 42.1297L6.43939 40.1973C5.83091 39.9076 5.33772 39.4214 5.0393 38.8171L0.9792 30.5954C0.669501 29.9683 0.588667 29.2526 0.750672 28.5722L1.75 24.375Z" stroke="black" stroke-opacity="0.5"/>
</svg>
