<svg width="66" height="50" viewBox="0 0 66 50" fill="none" xmlns="http://www.w3.org/2000/svg">
<path d="M1.07994 29.0411C2.2821 18.1396 9.55448 7.48242 14.0852 2.28703C14.8527 1.40695 16.0779 1.12401 17.1972 1.45671C25.5656 3.94408 39.5352 5.90195 47.3656 6.78318C48.51 6.91198 49.375 7.87563 49.375 9.02731C49.375 10.4959 51.1232 11.2613 52.2023 10.2652L53.426 9.13558C53.9485 8.65328 54.6571 8.42589 55.3627 8.51408L57.5762 8.79078C58.6156 8.92069 59.5119 9.58329 59.9409 10.5388L64.4543 20.5915C64.6487 21.0243 64.739 21.504 64.7076 21.9774C63.5936 38.7608 53.6121 46.4424 48.1896 48.4328C47.8189 48.5689 47.4226 48.6066 47.0294 48.5709L31.5983 47.168C31.2847 47.1395 30.9804 47.0617 30.6891 46.9424C24.3249 44.3358 14.2438 42.7059 8.64773 42.0526C7.62278 41.933 6.7199 41.3148 6.25842 40.3918L1.37476 30.6245C1.12961 30.1342 1.01985 29.586 1.07994 29.0411Z" stroke="black" stroke-opacity="0.5"/>
</svg>
